<svg viewBox="48.166 60.398 166.665 126.146" xmlns="http://www.w3.org/2000/svg">
    <path d="M 67.278 175.852 C 102.978 175.852 138.913 174.323 175.077 174.323"/>
    <path d="M 174.312 175.087 C 184.35 165.049 189.503 152.251 199.541 142.212"/>
    <path d="M 198.777 142.977 C 198.777 126.861 195.414 104.901 200.306 90.225 C 201.597 86.351 202.541 74.876 199.541 71.876"/>
    <path d="M 68.807 176.616 C 80.092 168.153 86.997 156.133 95.566 147.564"/>
    <path d="M 95.566 147.564 C 110.544 150.56 127.367 144.506 143.731 144.506 C 147.77 144.506 158.355 144.408 160.55 142.212 C 163.608 139.155 186.387 142.212 191.132 142.212 C 193.14 142.212 199.541 144.45 199.541 142.977"/>
    <path d="M 94.801 148.329 C 94.801 129.529 96.33 111.931 96.33 93.283 C 96.33 89.084 94.645 75.699 98.624 75.699"/>
    <path d="M 97.859 76.463 C 123.97 82.991 150.139 73.405 175.841 73.405 C 180.198 73.405 199.357 69.398 201.07 71.112"/>
    <path d="M 176.606 174.323 C 178.877 165.239 177.811 151.946 175.077 143.742 C 170.926 131.288 175.077 110.405 175.077 97.105"/>
    <path d="M 174.312 97.105 C 185.3 91.611 190.363 87.94 195.719 77.228 C 196.417 75.832 200.306 75.225 200.306 73.405"/>
    <path d="M 68.807 176.616 C 73.33 167.571 71.101 154.055 71.101 143.742 C 71.101 128.359 74.159 113.743 74.159 97.87"/>
    <path d="M 74.159 97.87 C 88.299 97.87 100.245 100.164 113.914 100.164 C 117.472 100.164 126.032 101.75 129.205 100.164 C 143.305 93.114 161.453 95.576 177.37 95.576"/>
    <path d="M 74.924 97.105 C 84.142 92.496 91.605 85.776 98.624 78.757"/>
</svg>